<?xml version="1.0" encoding="UTF-8" standalone="no"?>
<svg
   xmlns:dc="http://purl.org/dc/elements/1.1/"
   xmlns:cc="http://creativecommons.org/ns#"
   xmlns:rdf="http://www.w3.org/1999/02/22-rdf-syntax-ns#"
   xmlns:svg="http://www.w3.org/2000/svg"
   xmlns="http://www.w3.org/2000/svg"
   id="svg26"
   version="1.1"
   viewBox="0 0 86 120.31531"
   height="120.31532"
   width="86">
  <metadata
     id="metadata2">
    <rdf:RDF>
      <rdf:Description
         rdf:about="">
        <dc:creator>Bert Bos</dc:creator>
        <dc:date>2020-03-17</dc:date>
        <dc:description
           xml:lang="en">W3C logo in a white circle above the words &quot;AC 2020&quot;</dc:description>
      </rdf:Description>
      <cc:Work
         rdf:about="">
        <dc:format>image/svg+xml</dc:format>
        <dc:type
           rdf:resource="http://purl.org/dc/dcmitype/StillImage" />
        <dc:title></dc:title>
      </cc:Work>
    </rdf:RDF>
  </metadata>
  <defs
     id="defs11">
    <linearGradient
       gradientUnits="userSpaceOnUse"
       y2="86"
       x2="0"
       y1="0"
       x1="0"
       id="white-gray">
      <stop
         id="stop6"
         stop-color="#fff"
         offset="0%" />
      <stop
         id="stop8"
         stop-color="#f6f6f6"
         offset="100%" />
    </linearGradient>
  </defs>
  <!-- A white circle with the W3C logo -->
  <desc
     id="desc15">W3C</desc>
  <g
     id="g845">
    <circle
       r="43"
       cx="43"
       cy="43"
       style="fill:url(#white-gray)"
       id="circle13" />
    <svg
       id="W3C"
       x="10"
       y="27"
       width="68"
       height="34"
       viewBox="0 0 68 34"
       version="1.1">
      <path
         d="m 16.117,1.006 5.759,19.58 5.759,-19.58 h 4.17 11.444 V 2.952 L 37.37,13.08 c 2.065,0.663 3.627,1.868 4.686,3.615 1.059,1.748 1.589,3.799 1.589,6.155 0,2.914 -0.775,5.363 -2.324,7.348 -1.549,1.985 -3.555,2.978 -6.017,2.978 -1.854,0 -3.469,-0.589 -4.845,-1.767 -1.377,-1.178 -2.396,-2.773 -3.058,-4.786 l 3.256,-1.35 c 0.477,1.218 1.106,2.178 1.887,2.879 0.781,0.702 1.701,1.052 2.76,1.052 1.112,0 2.052,-0.622 2.82,-1.866 0.768,-1.245 1.152,-2.74 1.152,-4.489 0,-1.933 -0.411,-3.429 -1.231,-4.488 -0.954,-1.244 -2.45,-1.867 -4.489,-1.867 h -1.588 v -1.906 l 5.56,-9.612 h -6.712 l -0.382,0.65 -8.163,27.548 H 21.874 L 15.916,13.237 9.959,33.174 H 9.562 L 0.032,1.006 h 4.17 L 9.961,20.586 13.853,7.401 11.947,1.006 Z"
         style="fill:#005a9c"
         id="path17" />
      <path
         d="m 64.92,1.006 c -0.819,0 -1.554,0.295 -2.111,0.861 -0.591,0.6 -0.92,1.376 -0.92,2.178 0,0.802 0.313,1.545 0.887,2.128 0.583,0.591 1.334,0.912 2.145,0.912 0.793,0 1.562,-0.321 2.161,-0.903 0.574,-0.557 0.887,-1.3 0.887,-2.136 0,-0.811 -0.321,-1.57 -0.878,-2.136 C 66.507,1.318 65.747,1.006 64.92,1.006 Z m 2.643,3.065 c 0,0.701 -0.271,1.351 -0.768,1.832 -0.524,0.507 -1.174,0.777 -1.892,0.777 -0.675,0 -1.342,-0.278 -1.84,-0.785 -0.498,-0.507 -0.777,-1.157 -0.777,-1.849 0,-0.692 0.287,-1.368 0.802,-1.891 0.481,-0.49 1.131,-0.751 1.84,-0.751 0.726,0 1.376,0.271 1.883,0.785 0.49,0.489 0.752,1.147 0.752,1.882 z M 65.004,2.264 h -1.3 v 3.445 h 0.65 V 4.24 h 0.642 l 0.701,1.469 h 0.726 L 65.654,4.139 C 66.152,4.037 66.439,3.7 66.439,3.21 c 0,-0.625 -0.472,-0.946 -1.435,-0.946 z m -0.118,0.422 c 0.608,0 0.886,0.169 0.886,0.591 0,0.405 -0.278,0.549 -0.87,0.549 h -0.549 v -1.14 z"
         id="path19" />
      <path
         d="m 59.807,0.825 0.676,4.107 -2.391,4.575 c 0,0 -0.918,-1.941 -2.443,-3.015 C 54.364,5.587 53.527,5.39 52.218,5.66 c -1.681,0.347 -3.587,2.357 -4.419,4.835 -0.995,2.965 -1.005,4.4 -1.04,5.718 -0.056,2.113 0.277,3.362 0.277,3.362 0,0 -1.452,-2.686 -1.438,-6.62 0.009,-2.808 0.451,-5.354 1.75,-7.867 1.143,-2.209 2.842,-3.535 4.35,-3.691 1.559,-0.161 2.791,0.59 3.743,1.403 1,0.854 2.01,2.721 2.01,2.721 z"
         id="path21" />
      <path
         d="m 60.102,24.063 c 0,0 -1.057,1.889 -1.715,2.617 -0.659,0.728 -1.837,2.01 -3.292,2.651 -1.455,0.641 -2.218,0.762 -3.656,0.624 -1.437,-0.138 -2.772,-0.97 -3.24,-1.317 -0.468,-0.347 -1.664,-1.369 -2.34,-2.322 -0.676,-0.953 -1.733,-2.859 -1.733,-2.859 0,0 0.589,1.91 0.958,2.721 0.212,0.467 0.864,1.894 1.789,3.136 0.863,1.159 2.539,3.154 5.086,3.604 2.547,0.451 4.297,-0.693 4.73,-0.97 0.433,-0.277 1.346,-1.042 1.924,-1.66 0.603,-0.645 1.174,-1.468 1.49,-1.962 0.231,-0.36 0.607,-1.092 0.607,-1.092 z"
         id="path23" />
    </svg>
  </g>
  <g
     id="text837"
     style="font-style:normal;font-variant:normal;font-weight:normal;font-stretch:normal;font-size:32px;line-height:125%;font-family:'League Gothic';-inkscape-font-specification:'League Gothic, Normal';font-variant-ligatures:normal;font-variant-caps:normal;font-variant-numeric:normal;font-feature-settings:normal;text-align:start;letter-spacing:0px;word-spacing:0px;writing-mode:lr-tb;text-anchor:start;fill:#005a9c;fill-opacity:1;stroke:none;stroke-width:1px;stroke-linecap:butt;stroke-linejoin:miter;stroke-opacity:1"
     aria-label="AC 2020">
    <path
       id="path20252"
       d="m 6.9615,120.05932 3.552,-23.520001 h 4.224 l 3.552,23.520001 h -3.36 l -0.64,-4.8 h -3.328 l -0.64,4.8 z m 5.856,-15.872 -0.096,-0.608 h -0.192 l -0.096,0.608 -0.992,7.424 h 2.368 z" />
    <path
       id="path20254"
       d="m 28.851,111.99532 v 3.232 c -0.032,0.96 -0.224,1.824 -0.576,2.56 -0.288,0.64 -0.736,1.248 -1.376,1.728 -0.64,0.512 -1.504,0.8 -2.656,0.8 -1.152,0 -2.048,-0.288 -2.688,-0.8 -0.64,-0.48 -1.056,-1.088 -1.344,-1.728 -0.352,-0.736 -0.544,-1.6 -0.576,-2.56 v -13.856 c 0.032,-0.928 0.224,-1.792001 0.576,-2.528001 0.288,-0.64 0.704,-1.28 1.344,-1.76 0.64,-0.48 1.536,-0.8 2.688,-0.8 1.152,0 2.016,0.32 2.656,0.8 0.64,0.48 1.088,1.12 1.376,1.76 0.352,0.736 0.544,1.600001 0.576,2.528001 v 3.232 h -3.232 v -3.232 c 0,-0.64 -0.16,-1.088 -0.512,-1.472001 -0.16,-0.16 -0.448,-0.256 -0.8,-0.256 -0.608,0 -0.896,0.448001 -1.056,0.864001 -0.096,0.256 -0.128,0.544 -0.16,0.864 v 13.856 c 0.032,0.672 0.224,1.12 0.544,1.472 0.16,0.16 0.384,0.256 0.672,0.256 0.736,0 1.024,-0.384 1.184,-0.864 0.096,-0.224 0.128,-0.512 0.128,-0.864 v -3.232 z" />
    <path
       id="path20256"
       style="fill:#c9242b;fill-opacity:1"
       d="m 35.539,103.99532 v -1.632 c 0,-1.568 0.224,-3.104001 0.896,-4.224001 0.672,-1.12 1.824,-1.856 3.712,-1.856 1.76,0 2.944,0.672 3.648,1.696 0.704,1.056 0.96,2.528001 0.96,4.160001 0,2.4 -0.896,5.248 -2.016,7.904 -1.152,2.688 -2.496,5.088 -3.392,6.592 h 5.472 v 3.424 h -9.376 v -3.424 c 1.056,-1.632 2.016,-3.296 2.88,-4.96 0.736,-1.408 1.44,-3.008 1.984,-4.64 0.544,-1.632 0.96,-3.232 0.992,-4.672 0,-0.64 -0.032,-1.376 -0.192,-1.92 -0.16,-0.544001 -0.448,-0.960001 -0.96,-0.960001 -0.48,0 -0.768,0.352 -0.928,0.864001 -0.16,0.544 -0.224,1.248 -0.224,2.016 v 1.632 z" />
    <path
       id="path20258"
       style="fill:#c9242b;fill-opacity:1"
       d="m 56.2885,115.22732 c -0.032,0.96 -0.224,1.824 -0.576,2.56 -0.288,0.64 -0.736,1.248 -1.376,1.728 -0.64,0.512 -1.504,0.8 -2.656,0.8 -1.152,0 -2.048,-0.288 -2.688,-0.8 -0.64,-0.48 -1.056,-1.088 -1.344,-1.728 -0.352,-0.736 -0.544,-1.6 -0.576,-2.56 v -13.856 c 0.032,-0.928 0.224,-1.792001 0.576,-2.528001 0.288,-0.64 0.704,-1.28 1.344,-1.76 0.64,-0.48 1.536,-0.8 2.688,-0.8 1.152,0 2.016,0.32 2.656,0.8 0.64,0.48 1.088,1.12 1.376,1.76 0.352,0.736 0.544,1.600001 0.576,2.528001 z m -3.456,-13.856 c 0,-0.64 -0.128,-1.088 -0.448,-1.472001 -0.16,-0.16 -0.416,-0.256 -0.704,-0.256 -0.608,0 -0.896,0.448001 -1.024,0.864001 -0.096,0.256 -0.128,0.544 -0.128,0.864 v 13.856 c 0,0.672 0.16,1.12 0.48,1.472 0.16,0.16 0.384,0.256 0.672,0.256 0.608,0 0.896,-0.384 1.024,-0.864 0.096,-0.224 0.128,-0.512 0.128,-0.864 z" />
    <path
       id="path20260"
       style="fill:#c9242b;fill-opacity:1"
       d="m 58.289,103.99532 v -1.632 c 0,-1.568 0.224,-3.104001 0.896,-4.224001 0.672,-1.12 1.824,-1.856 3.712,-1.856 1.76,0 2.944,0.672 3.648,1.696 0.704,1.056 0.96,2.528001 0.96,4.160001 0,2.4 -0.896,5.248 -2.016,7.904 -1.152,2.688 -2.496,5.088 -3.392,6.592 h 5.472 v 3.424 h -9.376 v -3.424 c 1.056,-1.632 2.016,-3.296 2.88,-4.96 0.736,-1.408 1.44,-3.008 1.984,-4.64 0.544,-1.632 0.96,-3.232 0.992,-4.672 0,-0.64 -0.032,-1.376 -0.192,-1.92 -0.16,-0.544001 -0.448,-0.960001 -0.96,-0.960001 -0.48,0 -0.768,0.352 -0.928,0.864001 -0.16,0.544 -0.224,1.248 -0.224,2.016 v 1.632 z" />
    <path
       id="path20262"
       style="fill:#c9242b;fill-opacity:1"
       d="m 79.0385,115.22732 c -0.032,0.96 -0.224,1.824 -0.576,2.56 -0.288,0.64 -0.736,1.248 -1.376,1.728 -0.64,0.512 -1.504,0.8 -2.656,0.8 -1.152,0 -2.048,-0.288 -2.688,-0.8 -0.64,-0.48 -1.056,-1.088 -1.344,-1.728 -0.352,-0.736 -0.544,-1.6 -0.576,-2.56 v -13.856 c 0.032,-0.928 0.224,-1.792001 0.576,-2.528001 0.288,-0.64 0.704,-1.28 1.344,-1.76 0.64,-0.48 1.536,-0.8 2.688,-0.8 1.152,0 2.016,0.32 2.656,0.8 0.64,0.48 1.088,1.12 1.376,1.76 0.352,0.736 0.544,1.600001 0.576,2.528001 z m -3.456,-13.856 c 0,-0.64 -0.128,-1.088 -0.448,-1.472001 -0.16,-0.16 -0.416,-0.256 -0.704,-0.256 -0.608,0 -0.896,0.448001 -1.024,0.864001 -0.096,0.256 -0.128,0.544 -0.128,0.864 v 13.856 c 0,0.672 0.16,1.12 0.48,1.472 0.16,0.16 0.384,0.256 0.672,0.256 0.608,0 0.896,-0.384 1.024,-0.864 0.096,-0.224 0.128,-0.512 0.128,-0.864 z" />
  </g>
</svg>
